# xmcd
# 
# Track frame offsets:
#     150
#     19645
#     48121
#     73799
#     108271
#     135320
#     189450
#     211273
# 
# Disc length: 3431
# 
# Revision: 3
# Processed by: cddbd v1.5.2PL0 Copyright (c) Steve Scherf et al.
# Submitted via: fre:ac v1.0.31
# 
DISCID=630d6508
DTITLE=Takehiro Honda,Nobuyoshi Ino,Takeo moriyama - In A Sentimental Mood
DYEAR=1985
DGENRE=Jazz
TTITLE0=Mr.P.C
TTITLE1=Misty
TTITLE2=A Nigth In Tunsia
TTITLE3=Body And Soul
TTITLE4=Autumn Leaves
TTITLE5=Once I Loved
TTITLE6=In A Sentimental Mood
TTITLE7=Everything Happens To Me
EXTD=
EXTT0=
EXTT1=
EXTT2=
EXTT3=
EXTT4=
EXTT5=
EXTT6=
EXTT7=
PLAYORDER=
